<svg xmlns="http://www.w3.org/2000/svg" xmlns:xlink="http://www.w3.org/1999/xlink" width="16" height="16" zoomAndPan="magnify" viewBox="0 0 810 809.999993"  preserveAspectRatio="xMidYMid meet" version="1.0"><path fill="#000000" d="M 453.292969 404.945312 L 598.304688 259.9375 C 611.648438 246.59375 611.675781 224.921875 598.328125 211.570312 C 585.003906 198.246094 563.324219 198.230469 549.960938 211.589844 L 404.949219 356.601562 L 259.941406 211.589844 C 246.597656 198.246094 224.925781 198.222656 211.574219 211.570312 C 198.253906 224.894531 198.234375 246.574219 211.597656 259.9375 L 356.605469 404.945312 L 211.597656 549.957031 C 198.253906 563.300781 198.226562 584.972656 211.574219 598.324219 C 224.898438 611.644531 246.578125 611.664062 259.941406 598.300781 L 404.949219 453.289062 L 549.960938 598.300781 C 563.304688 611.644531 584.976562 611.671875 598.328125 598.324219 C 611.648438 585 611.667969 563.320312 598.304688 549.957031 Z M 453.292969 404.945312 " fill-opacity="1" fill-rule="evenodd"/></svg>